<mxfile host="app.diagrams.net" modified="2023-03-29T14:40:28.649Z" agent="Mozilla/5.0 (Windows NT 10.0; Win64; x64) AppleWebKit/537.36 (KHTML, like Gecko) Chrome/111.0.0.0 Safari/537.36" etag="IpkrTBRrIcoe_uXKK7wJ" version="21.1.1" type="device">
  <diagram name="Page-1" id="e3a06f82-3646-2815-327d-82caf3d4e204">
    <mxGraphModel dx="7170" dy="5404" grid="0" gridSize="10" guides="1" tooltips="1" connect="1" arrows="1" fold="1" page="1" pageScale="1.5" pageWidth="1169" pageHeight="826" background="#000000" math="0" shadow="0">
      <root>
        <mxCell id="0" style=";html=1;" />
        <mxCell id="1" style=";html=1;" parent="0" />
        <mxCell id="ROPBf6oA_unDlz0H3pI--160" style="edgeStyle=orthogonalEdgeStyle;rounded=0;orthogonalLoop=1;jettySize=auto;html=1;entryX=0.5;entryY=0;entryDx=0;entryDy=0;entryPerimeter=0;strokeColor=#FFFFFF;" edge="1" parent="1">
          <mxGeometry relative="1" as="geometry">
            <mxPoint x="1248.8899999999999" y="-271.5" as="sourcePoint" />
            <mxPoint x="1258.37" y="-110" as="targetPoint" />
            <Array as="points">
              <mxPoint x="1258" y="-271" />
              <mxPoint x="1258" y="-110" />
            </Array>
          </mxGeometry>
        </mxCell>
        <mxCell id="ROPBf6oA_unDlz0H3pI--24" value="" style="image;aspect=fixed;perimeter=ellipsePerimeter;html=1;align=center;shadow=0;dashed=0;spacingTop=3;image=img/lib/active_directory/database.svg;" vertex="1" parent="1">
          <mxGeometry x="1139.78" y="-311.5" width="108.11" height="80" as="geometry" />
        </mxCell>
        <mxCell id="ROPBf6oA_unDlz0H3pI--25" value="" style="endArrow=classic;html=1;rounded=0;strokeColor=#FFFFFF;" edge="1" parent="1">
          <mxGeometry relative="1" as="geometry">
            <mxPoint x="511.97" y="-271.88" as="sourcePoint" />
            <mxPoint x="783.97" y="-271.5" as="targetPoint" />
          </mxGeometry>
        </mxCell>
        <mxCell id="ROPBf6oA_unDlz0H3pI--26" value="&lt;font style=&quot;font-size: 19px;&quot;&gt;&amp;nbsp; PhpMyAdmin&amp;nbsp;&amp;nbsp;&lt;br&gt;MySQL&lt;/font&gt;" style="edgeLabel;resizable=0;html=1;align=center;verticalAlign=middle;" connectable="0" vertex="1" parent="ROPBf6oA_unDlz0H3pI--25">
          <mxGeometry relative="1" as="geometry" />
        </mxCell>
        <mxCell id="ROPBf6oA_unDlz0H3pI--49" style="edgeStyle=orthogonalEdgeStyle;rounded=0;orthogonalLoop=1;jettySize=auto;html=1;entryX=0.5;entryY=0;entryDx=0;entryDy=0;strokeColor=#FFFFFF;" edge="1" parent="1" source="ROPBf6oA_unDlz0H3pI--36" target="ROPBf6oA_unDlz0H3pI--41">
          <mxGeometry relative="1" as="geometry" />
        </mxCell>
        <mxCell id="ROPBf6oA_unDlz0H3pI--36" value="" style="image;aspect=fixed;perimeter=ellipsePerimeter;html=1;align=center;shadow=0;dashed=0;spacingTop=3;image=img/lib/active_directory/list.svg;" vertex="1" parent="1">
          <mxGeometry x="1216.9300000000003" y="2012.5" width="79.8" height="114" as="geometry" />
        </mxCell>
        <mxCell id="ROPBf6oA_unDlz0H3pI--48" style="edgeStyle=orthogonalEdgeStyle;rounded=0;orthogonalLoop=1;jettySize=auto;html=1;entryX=0.5;entryY=0;entryDx=0;entryDy=0;strokeColor=#FFFFFF;" edge="1" parent="1" source="ROPBf6oA_unDlz0H3pI--37" target="ROPBf6oA_unDlz0H3pI--44">
          <mxGeometry relative="1" as="geometry" />
        </mxCell>
        <mxCell id="ROPBf6oA_unDlz0H3pI--37" value="" style="image;aspect=fixed;perimeter=ellipsePerimeter;html=1;align=center;shadow=0;dashed=0;spacingTop=3;image=img/lib/active_directory/list.svg;" vertex="1" parent="1">
          <mxGeometry x="1349.7800000000002" y="2012.5" width="79.8" height="114" as="geometry" />
        </mxCell>
        <mxCell id="ROPBf6oA_unDlz0H3pI--46" style="edgeStyle=orthogonalEdgeStyle;rounded=0;orthogonalLoop=1;jettySize=auto;html=1;entryX=0.5;entryY=0;entryDx=0;entryDy=0;strokeColor=#FFFFFF;" edge="1" parent="1" source="ROPBf6oA_unDlz0H3pI--38" target="ROPBf6oA_unDlz0H3pI--45">
          <mxGeometry relative="1" as="geometry" />
        </mxCell>
        <mxCell id="ROPBf6oA_unDlz0H3pI--38" value="" style="image;aspect=fixed;perimeter=ellipsePerimeter;html=1;align=center;shadow=0;dashed=0;spacingTop=3;image=img/lib/active_directory/list.svg;" vertex="1" parent="1">
          <mxGeometry x="1482.7800000000002" y="2012.5" width="79.8" height="114" as="geometry" />
        </mxCell>
        <mxCell id="ROPBf6oA_unDlz0H3pI--50" style="edgeStyle=orthogonalEdgeStyle;rounded=0;orthogonalLoop=1;jettySize=auto;html=1;entryX=0.5;entryY=0;entryDx=0;entryDy=0;strokeColor=#FFFFFF;" edge="1" parent="1" source="ROPBf6oA_unDlz0H3pI--39" target="ROPBf6oA_unDlz0H3pI--42">
          <mxGeometry relative="1" as="geometry" />
        </mxCell>
        <mxCell id="ROPBf6oA_unDlz0H3pI--39" value="" style="image;aspect=fixed;perimeter=ellipsePerimeter;html=1;align=center;shadow=0;dashed=0;spacingTop=3;image=img/lib/active_directory/list.svg;" vertex="1" parent="1">
          <mxGeometry x="1083.78" y="2012.5" width="79.8" height="114" as="geometry" />
        </mxCell>
        <mxCell id="ROPBf6oA_unDlz0H3pI--51" style="edgeStyle=orthogonalEdgeStyle;rounded=0;orthogonalLoop=1;jettySize=auto;html=1;entryX=0.5;entryY=0;entryDx=0;entryDy=0;strokeColor=#FFFFFF;" edge="1" parent="1" source="ROPBf6oA_unDlz0H3pI--40" target="ROPBf6oA_unDlz0H3pI--43">
          <mxGeometry relative="1" as="geometry" />
        </mxCell>
        <mxCell id="ROPBf6oA_unDlz0H3pI--40" value="" style="image;aspect=fixed;perimeter=ellipsePerimeter;html=1;align=center;shadow=0;dashed=0;spacingTop=3;image=img/lib/active_directory/list.svg;" vertex="1" parent="1">
          <mxGeometry x="872.0100000000001" y="2015" width="79.8" height="114" as="geometry" />
        </mxCell>
        <mxCell id="ROPBf6oA_unDlz0H3pI--79" style="edgeStyle=orthogonalEdgeStyle;rounded=0;orthogonalLoop=1;jettySize=auto;html=1;entryX=0.5;entryY=0;entryDx=0;entryDy=0;strokeColor=#FFFFFF;" edge="1" parent="1" source="ROPBf6oA_unDlz0H3pI--41" target="ROPBf6oA_unDlz0H3pI--77">
          <mxGeometry relative="1" as="geometry" />
        </mxCell>
        <mxCell id="ROPBf6oA_unDlz0H3pI--41" value="&lt;span style=&quot;color: rgb(0, 0, 0); font-family: Helvetica; font-size: 19px; font-style: normal; font-variant-ligatures: normal; font-variant-caps: normal; font-weight: 400; letter-spacing: normal; orphans: 2; text-align: center; text-indent: 0px; text-transform: none; widows: 2; word-spacing: 0px; -webkit-text-stroke-width: 0px; background-color: rgb(255, 255, 255); text-decoration-thickness: initial; text-decoration-style: initial; text-decoration-color: initial; float: none; display: inline !important;&quot;&gt;&amp;nbsp; Catalog&amp;nbsp;&amp;nbsp;&lt;/span&gt;" style="text;whiteSpace=wrap;html=1;" vertex="1" parent="1">
          <mxGeometry x="1212.6100000000001" y="2199.5" width="88.77" height="34" as="geometry" />
        </mxCell>
        <mxCell id="ROPBf6oA_unDlz0H3pI--83" style="edgeStyle=orthogonalEdgeStyle;rounded=0;orthogonalLoop=1;jettySize=auto;html=1;entryX=0;entryY=0.5;entryDx=0;entryDy=0;strokeColor=#FFFFFF;" edge="1" parent="1" source="ROPBf6oA_unDlz0H3pI--42" target="ROPBf6oA_unDlz0H3pI--77">
          <mxGeometry relative="1" as="geometry">
            <Array as="points">
              <mxPoint x="1124" y="2382" />
            </Array>
          </mxGeometry>
        </mxCell>
        <mxCell id="ROPBf6oA_unDlz0H3pI--42" value="&lt;div style=&quot;text-align: center;&quot;&gt;&lt;span style=&quot;font-size: 19px; background-color: rgb(255, 255, 255);&quot;&gt;&amp;nbsp; Librarians&amp;nbsp;&amp;nbsp;&lt;/span&gt;&lt;/div&gt;" style="text;whiteSpace=wrap;html=1;" vertex="1" parent="1">
          <mxGeometry x="1070.7800000000002" y="2199.5" width="106.6" height="34" as="geometry" />
        </mxCell>
        <mxCell id="ROPBf6oA_unDlz0H3pI--84" style="edgeStyle=orthogonalEdgeStyle;rounded=0;orthogonalLoop=1;jettySize=auto;html=1;entryX=0;entryY=0.5;entryDx=0;entryDy=0;strokeColor=#FFFFFF;" edge="1" parent="1" source="ROPBf6oA_unDlz0H3pI--43" target="ROPBf6oA_unDlz0H3pI--77">
          <mxGeometry relative="1" as="geometry">
            <Array as="points">
              <mxPoint x="912" y="2382" />
              <mxPoint x="1090" y="2382" />
            </Array>
          </mxGeometry>
        </mxCell>
        <mxCell id="ROPBf6oA_unDlz0H3pI--43" value="&lt;div style=&quot;text-align: center;&quot;&gt;&lt;span style=&quot;font-size: 19px; background-color: rgb(255, 255, 255);&quot;&gt;&amp;nbsp; Admins&amp;nbsp;&amp;nbsp;&lt;/span&gt;&lt;/div&gt;" style="text;whiteSpace=wrap;html=1;" vertex="1" parent="1">
          <mxGeometry x="867.58" y="2198.5" width="88.65" height="34" as="geometry" />
        </mxCell>
        <mxCell id="ROPBf6oA_unDlz0H3pI--81" style="edgeStyle=orthogonalEdgeStyle;rounded=0;orthogonalLoop=1;jettySize=auto;html=1;entryX=1;entryY=0.5;entryDx=0;entryDy=0;strokeColor=#FFFFFF;" edge="1" parent="1" source="ROPBf6oA_unDlz0H3pI--44" target="ROPBf6oA_unDlz0H3pI--77">
          <mxGeometry relative="1" as="geometry">
            <Array as="points">
              <mxPoint x="1390" y="2382" />
            </Array>
          </mxGeometry>
        </mxCell>
        <mxCell id="ROPBf6oA_unDlz0H3pI--44" value="&lt;span style=&quot;color: rgb(0, 0, 0); font-family: Helvetica; font-size: 19px; font-style: normal; font-variant-ligatures: normal; font-variant-caps: normal; font-weight: 400; letter-spacing: normal; orphans: 2; text-align: center; text-indent: 0px; text-transform: none; widows: 2; word-spacing: 0px; -webkit-text-stroke-width: 0px; background-color: rgb(255, 255, 255); text-decoration-thickness: initial; text-decoration-style: initial; text-decoration-color: initial; float: none; display: inline !important;&quot;&gt;&amp;nbsp; Orders&amp;nbsp;&amp;nbsp;&lt;/span&gt;" style="text;whiteSpace=wrap;html=1;" vertex="1" parent="1">
          <mxGeometry x="1348.5200000000002" y="2199.5" width="83.86" height="34" as="geometry" />
        </mxCell>
        <mxCell id="ROPBf6oA_unDlz0H3pI--82" style="edgeStyle=orthogonalEdgeStyle;rounded=0;orthogonalLoop=1;jettySize=auto;html=1;entryX=1;entryY=0.5;entryDx=0;entryDy=0;strokeColor=#FFFFFF;" edge="1" parent="1" source="ROPBf6oA_unDlz0H3pI--45" target="ROPBf6oA_unDlz0H3pI--77">
          <mxGeometry relative="1" as="geometry">
            <Array as="points">
              <mxPoint x="1523" y="2382" />
              <mxPoint x="1385" y="2382" />
            </Array>
          </mxGeometry>
        </mxCell>
        <mxCell id="ROPBf6oA_unDlz0H3pI--45" value="&lt;span style=&quot;color: rgb(0, 0, 0); font-family: Helvetica; font-size: 19px; font-style: normal; font-variant-ligatures: normal; font-variant-caps: normal; font-weight: 400; letter-spacing: normal; orphans: 2; text-align: center; text-indent: 0px; text-transform: none; widows: 2; word-spacing: 0px; -webkit-text-stroke-width: 0px; background-color: rgb(255, 255, 255); text-decoration-thickness: initial; text-decoration-style: initial; text-decoration-color: initial; float: none; display: inline !important;&quot;&gt;&amp;nbsp; Reader&amp;nbsp;&amp;nbsp;&lt;/span&gt;" style="text;whiteSpace=wrap;html=1;" vertex="1" parent="1">
          <mxGeometry x="1480.5200000000002" y="2199.5" width="85.86" height="34" as="geometry" />
        </mxCell>
        <mxCell id="ROPBf6oA_unDlz0H3pI--59" style="edgeStyle=orthogonalEdgeStyle;rounded=0;orthogonalLoop=1;jettySize=auto;html=1;entryX=0.5;entryY=0;entryDx=0;entryDy=0;strokeColor=#FFFFFF;" edge="1" parent="1" source="ROPBf6oA_unDlz0H3pI--52" target="ROPBf6oA_unDlz0H3pI--40">
          <mxGeometry relative="1" as="geometry" />
        </mxCell>
        <mxCell id="ROPBf6oA_unDlz0H3pI--60" style="edgeStyle=orthogonalEdgeStyle;rounded=0;orthogonalLoop=1;jettySize=auto;html=1;entryX=0.5;entryY=0;entryDx=0;entryDy=0;strokeColor=#FFFFFF;" edge="1" parent="1" source="ROPBf6oA_unDlz0H3pI--52" target="ROPBf6oA_unDlz0H3pI--39">
          <mxGeometry relative="1" as="geometry">
            <Array as="points">
              <mxPoint x="912" y="1961" />
              <mxPoint x="1124" y="1961" />
            </Array>
          </mxGeometry>
        </mxCell>
        <mxCell id="ROPBf6oA_unDlz0H3pI--74" style="edgeStyle=orthogonalEdgeStyle;rounded=0;orthogonalLoop=1;jettySize=auto;html=1;entryX=0.5;entryY=0;entryDx=0;entryDy=0;strokeColor=#FFFFFF;" edge="1" parent="1" source="ROPBf6oA_unDlz0H3pI--52" target="ROPBf6oA_unDlz0H3pI--73">
          <mxGeometry relative="1" as="geometry">
            <Array as="points">
              <mxPoint x="912" y="1961" />
              <mxPoint x="703" y="1961" />
              <mxPoint x="703" y="2015" />
            </Array>
          </mxGeometry>
        </mxCell>
        <mxCell id="ROPBf6oA_unDlz0H3pI--52" value="&lt;div style=&quot;text-align: center;&quot;&gt;&lt;span style=&quot;font-size: 19px; background-color: rgb(255, 255, 255);&quot;&gt;&amp;nbsp; administrator&amp;nbsp;&amp;nbsp;&lt;/span&gt;&lt;/div&gt;&lt;div style=&quot;text-align: center;&quot;&gt;&lt;span style=&quot;font-size: 19px; background-color: rgb(255, 255, 255);&quot;&gt;&amp;nbsp; table&amp;nbsp;&amp;nbsp;&lt;/span&gt;&lt;/div&gt;" style="text;whiteSpace=wrap;html=1;" vertex="1" parent="1">
          <mxGeometry x="844.41" y="1878.5" width="135" height="34" as="geometry" />
        </mxCell>
        <mxCell id="ROPBf6oA_unDlz0H3pI--61" style="edgeStyle=orthogonalEdgeStyle;rounded=0;orthogonalLoop=1;jettySize=auto;html=1;entryX=0.5;entryY=0;entryDx=0;entryDy=0;strokeColor=#FFFFFF;" edge="1" parent="1" source="ROPBf6oA_unDlz0H3pI--53" target="ROPBf6oA_unDlz0H3pI--36">
          <mxGeometry relative="1" as="geometry" />
        </mxCell>
        <mxCell id="ROPBf6oA_unDlz0H3pI--53" value="&lt;div style=&quot;text-align: center;&quot;&gt;&lt;span style=&quot;font-size: 19px; background-color: rgb(255, 255, 255);&quot;&gt;&amp;nbsp; catalog&amp;nbsp;&amp;nbsp;&lt;/span&gt;&lt;/div&gt;&lt;div style=&quot;text-align: center;&quot;&gt;&lt;span style=&quot;font-size: 19px; background-color: rgb(255, 255, 255);&quot;&gt;&amp;nbsp; table&amp;nbsp;&amp;nbsp;&lt;/span&gt;&lt;/div&gt;" style="text;whiteSpace=wrap;html=1;" vertex="1" parent="1">
          <mxGeometry x="1214.7300000000002" y="1878.5" width="85" height="34" as="geometry" />
        </mxCell>
        <mxCell id="ROPBf6oA_unDlz0H3pI--63" style="edgeStyle=orthogonalEdgeStyle;rounded=0;orthogonalLoop=1;jettySize=auto;html=1;entryX=0.5;entryY=0;entryDx=0;entryDy=0;strokeColor=#FFFFFF;" edge="1" parent="1" source="ROPBf6oA_unDlz0H3pI--54" target="ROPBf6oA_unDlz0H3pI--37">
          <mxGeometry relative="1" as="geometry" />
        </mxCell>
        <mxCell id="ROPBf6oA_unDlz0H3pI--54" value="&lt;div style=&quot;text-align: center;&quot;&gt;&lt;span style=&quot;font-size: 19px; background-color: rgb(255, 255, 255);&quot;&gt;&amp;nbsp; orders&amp;nbsp;&amp;nbsp;&lt;/span&gt;&lt;/div&gt;&lt;div style=&quot;text-align: center;&quot;&gt;&lt;span style=&quot;font-size: 19px; background-color: rgb(255, 255, 255);&quot;&gt;&amp;nbsp; table&amp;nbsp;&amp;nbsp;&lt;/span&gt;&lt;/div&gt;" style="text;whiteSpace=wrap;html=1;" vertex="1" parent="1">
          <mxGeometry x="1351.18" y="1878.5" width="77" height="34" as="geometry" />
        </mxCell>
        <mxCell id="ROPBf6oA_unDlz0H3pI--64" style="edgeStyle=orthogonalEdgeStyle;rounded=0;orthogonalLoop=1;jettySize=auto;html=1;entryX=0.5;entryY=0;entryDx=0;entryDy=0;strokeColor=#FFFFFF;" edge="1" parent="1" source="ROPBf6oA_unDlz0H3pI--55" target="ROPBf6oA_unDlz0H3pI--38">
          <mxGeometry relative="1" as="geometry" />
        </mxCell>
        <mxCell id="ROPBf6oA_unDlz0H3pI--55" value="&lt;div style=&quot;text-align: center;&quot;&gt;&lt;span style=&quot;font-size: 19px; background-color: rgb(255, 255, 255);&quot;&gt;&amp;nbsp; reader&amp;nbsp;&amp;nbsp;&lt;/span&gt;&lt;/div&gt;&lt;div style=&quot;text-align: center;&quot;&gt;&lt;span style=&quot;font-size: 19px; background-color: rgb(255, 255, 255);&quot;&gt;&amp;nbsp; table&amp;nbsp;&amp;nbsp;&lt;/span&gt;&lt;/div&gt;" style="text;whiteSpace=wrap;html=1;" vertex="1" parent="1">
          <mxGeometry x="1482.18" y="1878.5" width="81" height="34" as="geometry" />
        </mxCell>
        <mxCell id="ROPBf6oA_unDlz0H3pI--65" style="edgeStyle=orthogonalEdgeStyle;rounded=0;orthogonalLoop=1;jettySize=auto;html=1;entryX=0.5;entryY=0;entryDx=0;entryDy=0;strokeColor=#FFFFFF;" edge="1" parent="1" source="ROPBf6oA_unDlz0H3pI--57" target="ROPBf6oA_unDlz0H3pI--52">
          <mxGeometry relative="1" as="geometry" />
        </mxCell>
        <mxCell id="ROPBf6oA_unDlz0H3pI--66" style="edgeStyle=orthogonalEdgeStyle;rounded=0;orthogonalLoop=1;jettySize=auto;html=1;entryX=0.5;entryY=0;entryDx=0;entryDy=0;strokeColor=#FFFFFF;" edge="1" parent="1" source="ROPBf6oA_unDlz0H3pI--57" target="ROPBf6oA_unDlz0H3pI--53">
          <mxGeometry relative="1" as="geometry" />
        </mxCell>
        <mxCell id="ROPBf6oA_unDlz0H3pI--67" style="edgeStyle=orthogonalEdgeStyle;rounded=0;orthogonalLoop=1;jettySize=auto;html=1;entryX=0.5;entryY=0;entryDx=0;entryDy=0;strokeColor=#FFFFFF;" edge="1" parent="1" source="ROPBf6oA_unDlz0H3pI--57" target="ROPBf6oA_unDlz0H3pI--54">
          <mxGeometry relative="1" as="geometry" />
        </mxCell>
        <mxCell id="ROPBf6oA_unDlz0H3pI--68" style="edgeStyle=orthogonalEdgeStyle;rounded=0;orthogonalLoop=1;jettySize=auto;html=1;entryX=0.5;entryY=0;entryDx=0;entryDy=0;strokeColor=#FFFFFF;" edge="1" parent="1" source="ROPBf6oA_unDlz0H3pI--57" target="ROPBf6oA_unDlz0H3pI--55">
          <mxGeometry relative="1" as="geometry" />
        </mxCell>
        <mxCell id="ROPBf6oA_unDlz0H3pI--57" value="" style="image;aspect=fixed;perimeter=ellipsePerimeter;html=1;align=center;shadow=0;dashed=0;spacingTop=3;image=img/lib/active_directory/database_cube.svg;" vertex="1" parent="1">
          <mxGeometry x="1215.76" y="1655" width="84.6" height="94" as="geometry" />
        </mxCell>
        <mxCell id="ROPBf6oA_unDlz0H3pI--179" style="edgeStyle=orthogonalEdgeStyle;rounded=0;orthogonalLoop=1;jettySize=auto;html=1;entryX=0;entryY=0.5;entryDx=0;entryDy=0;strokeColor=#FFFFFF;" edge="1" parent="1" source="ROPBf6oA_unDlz0H3pI--69" target="ROPBf6oA_unDlz0H3pI--24">
          <mxGeometry relative="1" as="geometry" />
        </mxCell>
        <mxCell id="ROPBf6oA_unDlz0H3pI--180" value="&lt;font style=&quot;font-size: 20px;&quot;&gt;Login Data&lt;/font&gt;" style="edgeLabel;html=1;align=center;verticalAlign=middle;resizable=0;points=[];" vertex="1" connectable="0" parent="ROPBf6oA_unDlz0H3pI--179">
          <mxGeometry x="-0.2086" y="-3" relative="1" as="geometry">
            <mxPoint x="25" y="-3" as="offset" />
          </mxGeometry>
        </mxCell>
        <mxCell id="ROPBf6oA_unDlz0H3pI--69" value="" style="image;aspect=fixed;perimeter=ellipsePerimeter;html=1;align=center;shadow=0;dashed=0;spacingTop=3;image=img/lib/active_directory/database_server.svg;" vertex="1" parent="1">
          <mxGeometry x="783.52" y="-346" width="122.18" height="149" as="geometry" />
        </mxCell>
        <mxCell id="ROPBf6oA_unDlz0H3pI--76" style="edgeStyle=orthogonalEdgeStyle;rounded=0;orthogonalLoop=1;jettySize=auto;html=1;entryX=0.5;entryY=0;entryDx=0;entryDy=0;strokeColor=#FFFFFF;" edge="1" parent="1" source="ROPBf6oA_unDlz0H3pI--73" target="ROPBf6oA_unDlz0H3pI--75">
          <mxGeometry relative="1" as="geometry" />
        </mxCell>
        <mxCell id="ROPBf6oA_unDlz0H3pI--73" value="" style="image;aspect=fixed;perimeter=ellipsePerimeter;html=1;align=center;shadow=0;dashed=0;spacingTop=3;image=img/lib/active_directory/documents.svg;" vertex="1" parent="1">
          <mxGeometry x="668" y="2015" width="71.94" height="109" as="geometry" />
        </mxCell>
        <mxCell id="ROPBf6oA_unDlz0H3pI--75" value="&lt;div style=&quot;text-align: center;&quot;&gt;&lt;span style=&quot;font-size: 19px; background-color: rgb(255, 255, 255);&quot;&gt;&amp;nbsp; Admin/Librarian&lt;/span&gt;&lt;/div&gt;&lt;div style=&quot;text-align: center;&quot;&gt;&lt;span style=&quot;font-size: 19px; background-color: rgb(255, 255, 255);&quot;&gt;&amp;nbsp; Information&amp;nbsp;&amp;nbsp;&lt;/span&gt;&lt;/div&gt;" style="text;whiteSpace=wrap;html=1;" vertex="1" parent="1">
          <mxGeometry x="630.47" y="2199.5" width="147" height="34" as="geometry" />
        </mxCell>
        <mxCell id="ROPBf6oA_unDlz0H3pI--121" style="edgeStyle=orthogonalEdgeStyle;rounded=0;orthogonalLoop=1;jettySize=auto;html=1;entryX=0.5;entryY=0;entryDx=0;entryDy=0;strokeColor=#FFFFFF;" edge="1" parent="1" source="ROPBf6oA_unDlz0H3pI--77" target="ROPBf6oA_unDlz0H3pI--117">
          <mxGeometry relative="1" as="geometry" />
        </mxCell>
        <mxCell id="ROPBf6oA_unDlz0H3pI--77" value="" style="shape=image;html=1;verticalAlign=top;verticalLabelPosition=bottom;labelBackgroundColor=#FFFFFF;imageAspect=0;aspect=fixed;image=https://cdn1.iconfinder.com/data/icons/hawcons/32/699552-icon-27-one-finger-click-128.png;fontColor=#FFFFFF;imageBackground=none;imageBorder=none;" vertex="1" parent="1">
          <mxGeometry x="1224.08" y="2349" width="65.5" height="65.5" as="geometry" />
        </mxCell>
        <mxCell id="ROPBf6oA_unDlz0H3pI--128" style="edgeStyle=orthogonalEdgeStyle;rounded=0;orthogonalLoop=1;jettySize=auto;html=1;entryX=0.5;entryY=1;entryDx=0;entryDy=0;strokeColor=#FFFFFF;" edge="1" parent="1" source="ROPBf6oA_unDlz0H3pI--85" target="ROPBf6oA_unDlz0H3pI--127">
          <mxGeometry width="421.0033286538785" height="1962.0022413728384" relative="1" as="geometry" />
        </mxCell>
        <mxCell id="ROPBf6oA_unDlz0H3pI--129" value="&lt;font style=&quot;font-size: 20px;&quot;&gt;&amp;nbsp; Clicked table&amp;nbsp;&amp;nbsp;&lt;br&gt;row data&lt;/font&gt;" style="edgeLabel;html=1;align=center;verticalAlign=middle;resizable=0;points=[];" vertex="1" connectable="0" parent="ROPBf6oA_unDlz0H3pI--128">
          <mxGeometry x="0.2219" y="-1" relative="1" as="geometry">
            <mxPoint x="-1" y="-115" as="offset" />
          </mxGeometry>
        </mxCell>
        <mxCell id="ROPBf6oA_unDlz0H3pI--130" value="&lt;font style=&quot;font-size: 20px;&quot;&gt;&amp;nbsp; Clicked table&amp;nbsp;&amp;nbsp;&lt;br&gt;row data&lt;/font&gt;" style="edgeLabel;html=1;align=center;verticalAlign=middle;resizable=0;points=[];" vertex="1" connectable="0" parent="ROPBf6oA_unDlz0H3pI--128">
          <mxGeometry x="373.0033286538785" y="2552.0022413728384" as="geometry" />
        </mxCell>
        <mxCell id="ROPBf6oA_unDlz0H3pI--85" value="&amp;nbsp;One Cilck" style="html=1;shadow=0;dashed=0;shape=mxgraph.bootstrap.rrect;rSize=5;strokeColor=none;strokeWidth=1;fillColor=#0085FC;fontColor=#FFFFFF;whiteSpace=wrap;align=left;verticalAlign=middle;spacingLeft=0;fontStyle=1;fontSize=14;spacing=5;" vertex="1" parent="1">
          <mxGeometry x="1064" y="2541" width="81.68" height="36" as="geometry" />
        </mxCell>
        <mxCell id="ROPBf6oA_unDlz0H3pI--94" style="edgeStyle=orthogonalEdgeStyle;rounded=0;orthogonalLoop=1;jettySize=auto;html=1;fontColor=#FFFFFF;strokeColor=#FFFFFF;" edge="1" parent="1" source="ROPBf6oA_unDlz0H3pI--86" target="ROPBf6oA_unDlz0H3pI--89">
          <mxGeometry relative="1" as="geometry" />
        </mxCell>
        <mxCell id="ROPBf6oA_unDlz0H3pI--86" value="&amp;nbsp;Double Cilck" style="html=1;shadow=0;dashed=0;shape=mxgraph.bootstrap.rrect;rSize=5;strokeColor=none;strokeWidth=1;fillColor=#0085FC;fontColor=#FFFFFF;whiteSpace=wrap;align=left;verticalAlign=middle;spacingLeft=0;fontStyle=1;fontSize=14;spacing=5;" vertex="1" parent="1">
          <mxGeometry x="1338.74" y="2541" width="101.89" height="36" as="geometry" />
        </mxCell>
        <mxCell id="ROPBf6oA_unDlz0H3pI--97" value="&lt;font style=&quot;font-size: 20px;&quot;&gt;&amp;nbsp; Yes&amp;nbsp;&amp;nbsp;&lt;/font&gt;" style="edgeStyle=orthogonalEdgeStyle;rounded=0;orthogonalLoop=1;jettySize=auto;html=1;entryX=0;entryY=0.5;entryDx=0;entryDy=0;strokeColor=#FFFFFF;" edge="1" parent="1" source="ROPBf6oA_unDlz0H3pI--89" target="ROPBf6oA_unDlz0H3pI--96">
          <mxGeometry relative="1" as="geometry" />
        </mxCell>
        <mxCell id="ROPBf6oA_unDlz0H3pI--102" style="edgeStyle=orthogonalEdgeStyle;rounded=0;orthogonalLoop=1;jettySize=auto;html=1;entryX=0;entryY=0.5;entryDx=0;entryDy=0;strokeColor=#FFFFFF;" edge="1" parent="1" source="ROPBf6oA_unDlz0H3pI--113" target="ROPBf6oA_unDlz0H3pI--101">
          <mxGeometry relative="1" as="geometry">
            <Array as="points">
              <mxPoint x="1864" y="2559" />
              <mxPoint x="1864" y="2695" />
            </Array>
          </mxGeometry>
        </mxCell>
        <mxCell id="ROPBf6oA_unDlz0H3pI--116" value="&lt;font style=&quot;font-size: 20px;&quot;&gt;&amp;nbsp; No&amp;nbsp;&amp;nbsp;&lt;/font&gt;" style="edgeLabel;html=1;align=center;verticalAlign=middle;resizable=0;points=[];" vertex="1" connectable="0" parent="ROPBf6oA_unDlz0H3pI--102">
          <mxGeometry x="-0.165" y="3" relative="1" as="geometry">
            <mxPoint x="-3" y="-29" as="offset" />
          </mxGeometry>
        </mxCell>
        <mxCell id="ROPBf6oA_unDlz0H3pI--89" value="&lt;font style=&quot;font-size: 15px;&quot;&gt;Are you sure want to delete record {Record Unique Id} from table {table}?&lt;/font&gt;" style="html=1;shadow=0;dashed=0;shape=mxgraph.bootstrap.rrect;rSize=5;strokeColor=#5B646A;html=1;whiteSpace=wrap;fillColor=#6C767D;fontColor=#ffffff;verticalAlign=bottom;align=left;spacing=20;spacingBottom=0;fontSize=14;" vertex="1" parent="1">
          <mxGeometry x="1522" y="2488.5" width="250" height="141" as="geometry" />
        </mxCell>
        <mxCell id="ROPBf6oA_unDlz0H3pI--90" value="Delete Record" style="html=1;shadow=0;dashed=0;shape=mxgraph.bootstrap.topButton;rSize=5;perimeter=none;whiteSpace=wrap;fillColor=#697279;strokeColor=#5B646A;fontColor=#ffffff;resizeWidth=1;fontSize=18;align=left;spacing=20;" vertex="1" parent="ROPBf6oA_unDlz0H3pI--89">
          <mxGeometry width="250" height="50" relative="1" as="geometry" />
        </mxCell>
        <mxCell id="ROPBf6oA_unDlz0H3pI--96" value="" style="image;aspect=fixed;perimeter=ellipsePerimeter;html=1;align=center;shadow=0;dashed=0;spacingTop=3;image=img/lib/active_directory/database_cube.svg;" vertex="1" parent="1">
          <mxGeometry x="1956" y="2359" width="84.6" height="94" as="geometry" />
        </mxCell>
        <mxCell id="ROPBf6oA_unDlz0H3pI--100" value="" style="shape=image;html=1;verticalAlign=top;verticalLabelPosition=bottom;labelBackgroundColor=#ffffff;imageAspect=0;aspect=fixed;image=https://cdn4.iconfinder.com/data/icons/essentials-74/24/013_-_Trash-128.png" vertex="1" parent="1">
          <mxGeometry x="2007" y="2414.5" width="45" height="45" as="geometry" />
        </mxCell>
        <mxCell id="ROPBf6oA_unDlz0H3pI--101" value="" style="shape=image;html=1;verticalAlign=top;verticalLabelPosition=bottom;labelBackgroundColor=#ffffff;imageAspect=0;aspect=fixed;image=https://cdn4.iconfinder.com/data/icons/evil-icons-user-interface/64/close2-128.png" vertex="1" parent="1">
          <mxGeometry x="1946.6" y="2648" width="94" height="94" as="geometry" />
        </mxCell>
        <mxCell id="ROPBf6oA_unDlz0H3pI--105" style="edgeStyle=orthogonalEdgeStyle;rounded=0;orthogonalLoop=1;jettySize=auto;html=1;entryX=0.495;entryY=-0.045;entryDx=0;entryDy=0;entryPerimeter=0;" edge="1" parent="1" source="ROPBf6oA_unDlz0H3pI--104" target="ROPBf6oA_unDlz0H3pI--57">
          <mxGeometry relative="1" as="geometry" />
        </mxCell>
        <mxCell id="ROPBf6oA_unDlz0H3pI--106" style="edgeStyle=orthogonalEdgeStyle;rounded=0;orthogonalLoop=1;jettySize=auto;html=1;entryX=0.5;entryY=0;entryDx=0;entryDy=0;strokeColor=#FFFFFF;" edge="1" parent="1" source="ROPBf6oA_unDlz0H3pI--104" target="ROPBf6oA_unDlz0H3pI--57">
          <mxGeometry relative="1" as="geometry" />
        </mxCell>
        <mxCell id="ROPBf6oA_unDlz0H3pI--111" value="&lt;font style=&quot;font-size: 20px;&quot;&gt;&amp;nbsp; SHOW&amp;nbsp;&amp;nbsp;&lt;/font&gt;" style="edgeLabel;html=1;align=center;verticalAlign=middle;resizable=0;points=[];" vertex="1" connectable="0" parent="ROPBf6oA_unDlz0H3pI--106">
          <mxGeometry x="-0.1723" y="3" relative="1" as="geometry">
            <mxPoint x="-4" y="384" as="offset" />
          </mxGeometry>
        </mxCell>
        <mxCell id="ROPBf6oA_unDlz0H3pI--108" style="edgeStyle=orthogonalEdgeStyle;rounded=0;orthogonalLoop=1;jettySize=auto;html=1;entryX=-0.003;entryY=0.471;entryDx=0;entryDy=0;entryPerimeter=0;strokeColor=#FFFFFF;" edge="1" parent="1" source="ROPBf6oA_unDlz0H3pI--104" target="ROPBf6oA_unDlz0H3pI--107">
          <mxGeometry relative="1" as="geometry" />
        </mxCell>
        <mxCell id="ROPBf6oA_unDlz0H3pI--112" value="&amp;nbsp; &amp;nbsp;&lt;font style=&quot;font-size: 20px;&quot;&gt;INSERT&amp;nbsp;&amp;nbsp;&lt;/font&gt;" style="edgeLabel;html=1;align=center;verticalAlign=middle;resizable=0;points=[];" vertex="1" connectable="0" parent="ROPBf6oA_unDlz0H3pI--108">
          <mxGeometry x="0.2283" relative="1" as="geometry">
            <mxPoint x="-18" as="offset" />
          </mxGeometry>
        </mxCell>
        <mxCell id="ROPBf6oA_unDlz0H3pI--125" style="edgeStyle=orthogonalEdgeStyle;rounded=0;orthogonalLoop=1;jettySize=auto;html=1;entryX=1;entryY=0.5;entryDx=0;entryDy=0;strokeColor=#FFFFFF;" edge="1" parent="1" source="ROPBf6oA_unDlz0H3pI--104" target="ROPBf6oA_unDlz0H3pI--122">
          <mxGeometry relative="1" as="geometry" />
        </mxCell>
        <mxCell id="ROPBf6oA_unDlz0H3pI--126" value="&lt;font style=&quot;font-size: 20px;&quot;&gt;&amp;nbsp; EDIT&amp;nbsp;&amp;nbsp;&lt;/font&gt;" style="edgeLabel;html=1;align=center;verticalAlign=middle;resizable=0;points=[];" vertex="1" connectable="0" parent="ROPBf6oA_unDlz0H3pI--125">
          <mxGeometry x="0.2686" relative="1" as="geometry">
            <mxPoint x="24" y="-1" as="offset" />
          </mxGeometry>
        </mxCell>
        <mxCell id="ROPBf6oA_unDlz0H3pI--104" value="" style="image;aspect=fixed;perimeter=ellipsePerimeter;html=1;align=center;shadow=0;dashed=0;spacingTop=3;image=img/lib/active_directory/home.svg;" vertex="1" parent="1">
          <mxGeometry x="1202" y="840" width="112.37" height="109" as="geometry" />
        </mxCell>
        <mxCell id="ROPBf6oA_unDlz0H3pI--135" style="edgeStyle=orthogonalEdgeStyle;rounded=0;orthogonalLoop=1;jettySize=auto;html=1;entryX=0;entryY=0.5;entryDx=0;entryDy=0;strokeColor=#FFFFFF;" edge="1" parent="1" source="ROPBf6oA_unDlz0H3pI--107" target="ROPBf6oA_unDlz0H3pI--134">
          <mxGeometry relative="1" as="geometry" />
        </mxCell>
        <mxCell id="ROPBf6oA_unDlz0H3pI--107" value="" style="image;aspect=fixed;perimeter=ellipsePerimeter;html=1;align=center;shadow=0;dashed=0;spacingTop=3;image=img/lib/active_directory/database_cube.svg;" vertex="1" parent="1">
          <mxGeometry x="1478.58" y="850.5" width="84.6" height="94" as="geometry" />
        </mxCell>
        <mxCell id="ROPBf6oA_unDlz0H3pI--110" value="" style="html=1;verticalLabelPosition=bottom;align=center;labelBackgroundColor=#ffffff;verticalAlign=top;strokeWidth=2;strokeColor=#0080F0;shadow=0;dashed=0;shape=mxgraph.ios7.icons.add;" vertex="1" parent="1">
          <mxGeometry x="1530" y="904" width="45" height="45" as="geometry" />
        </mxCell>
        <mxCell id="ROPBf6oA_unDlz0H3pI--114" value="" style="edgeStyle=orthogonalEdgeStyle;rounded=0;orthogonalLoop=1;jettySize=auto;html=1;entryX=0;entryY=0.5;entryDx=0;entryDy=0;strokeColor=#FFFFFF;" edge="1" parent="1" source="ROPBf6oA_unDlz0H3pI--89" target="ROPBf6oA_unDlz0H3pI--113">
          <mxGeometry relative="1" as="geometry">
            <mxPoint x="1772" y="2559" as="sourcePoint" />
            <mxPoint x="1947" y="2695" as="targetPoint" />
            <Array as="points" />
          </mxGeometry>
        </mxCell>
        <mxCell id="ROPBf6oA_unDlz0H3pI--113" value="" style="rhombus;whiteSpace=wrap;html=1;" vertex="1" parent="1">
          <mxGeometry x="1841" y="2535.5" width="47" height="47" as="geometry" />
        </mxCell>
        <mxCell id="ROPBf6oA_unDlz0H3pI--119" style="edgeStyle=orthogonalEdgeStyle;rounded=0;orthogonalLoop=1;jettySize=auto;html=1;entryX=0.002;entryY=0.517;entryDx=0;entryDy=0;entryPerimeter=0;strokeColor=#FFFFFF;" edge="1" parent="1" source="ROPBf6oA_unDlz0H3pI--117" target="ROPBf6oA_unDlz0H3pI--86">
          <mxGeometry relative="1" as="geometry" />
        </mxCell>
        <mxCell id="ROPBf6oA_unDlz0H3pI--120" style="edgeStyle=orthogonalEdgeStyle;rounded=0;orthogonalLoop=1;jettySize=auto;html=1;entryX=0.979;entryY=0.518;entryDx=0;entryDy=0;entryPerimeter=0;strokeColor=#FFFFFF;" edge="1" parent="1" source="ROPBf6oA_unDlz0H3pI--117" target="ROPBf6oA_unDlz0H3pI--85">
          <mxGeometry relative="1" as="geometry" />
        </mxCell>
        <mxCell id="ROPBf6oA_unDlz0H3pI--117" value="" style="rhombus;whiteSpace=wrap;html=1;" vertex="1" parent="1">
          <mxGeometry x="1227" y="2529" width="60" height="60" as="geometry" />
        </mxCell>
        <mxCell id="ROPBf6oA_unDlz0H3pI--131" style="edgeStyle=orthogonalEdgeStyle;rounded=0;orthogonalLoop=1;jettySize=auto;html=1;entryX=1;entryY=0.5;entryDx=0;entryDy=0;strokeColor=#FFFFFF;" edge="1" parent="1" source="ROPBf6oA_unDlz0H3pI--122" target="ROPBf6oA_unDlz0H3pI--127">
          <mxGeometry relative="1" as="geometry" />
        </mxCell>
        <mxCell id="ROPBf6oA_unDlz0H3pI--122" value="" style="image;aspect=fixed;perimeter=ellipsePerimeter;html=1;align=center;shadow=0;dashed=0;spacingTop=3;image=img/lib/active_directory/database_cube.svg;" vertex="1" parent="1">
          <mxGeometry x="941.29" y="848.25" width="84.6" height="94" as="geometry" />
        </mxCell>
        <mxCell id="ROPBf6oA_unDlz0H3pI--124" value="" style="html=1;verticalLabelPosition=bottom;align=center;labelBackgroundColor=#ffffff;verticalAlign=top;strokeWidth=2;strokeColor=#0080F0;shadow=0;dashed=0;shape=mxgraph.ios7.icons.compose;" vertex="1" parent="1">
          <mxGeometry x="1007" y="904" width="33.8" height="33.8" as="geometry" />
        </mxCell>
        <mxCell id="ROPBf6oA_unDlz0H3pI--146" style="edgeStyle=orthogonalEdgeStyle;rounded=0;orthogonalLoop=1;jettySize=auto;html=1;entryX=0.5;entryY=1;entryDx=0;entryDy=0;strokeColor=#FFFFFF;" edge="1" parent="1" source="ROPBf6oA_unDlz0H3pI--127" target="ROPBf6oA_unDlz0H3pI--144">
          <mxGeometry relative="1" as="geometry" />
        </mxCell>
        <mxCell id="ROPBf6oA_unDlz0H3pI--127" value="" style="image;aspect=fixed;perimeter=ellipsePerimeter;html=1;align=center;shadow=0;dashed=0;spacingTop=3;image=img/lib/active_directory/documents.svg;" vertex="1" parent="1">
          <mxGeometry x="426" y="840.75" width="71.94" height="109" as="geometry" />
        </mxCell>
        <mxCell id="ROPBf6oA_unDlz0H3pI--132" value="&lt;span style=&quot;font-size: 15px;&quot;&gt;Data inserted to table {Select Type}&amp;nbsp;&lt;/span&gt;" style="html=1;shadow=0;dashed=0;shape=mxgraph.bootstrap.rrect;rSize=5;strokeColor=#4D9900;html=1;whiteSpace=wrap;fillColor=#4D9900;fontColor=#ffffff;verticalAlign=bottom;align=left;spacing=20;spacingBottom=0;fontSize=14;" vertex="1" parent="1">
          <mxGeometry x="1790.6" y="647" width="250" height="141" as="geometry" />
        </mxCell>
        <mxCell id="ROPBf6oA_unDlz0H3pI--133" value="Insert Record" style="html=1;shadow=0;dashed=0;shape=mxgraph.bootstrap.topButton;rSize=5;perimeter=none;whiteSpace=wrap;fillColor=#4D9900;strokeColor=#5B646A;fontColor=#ffffff;resizeWidth=1;fontSize=18;align=left;spacing=20;" vertex="1" parent="ROPBf6oA_unDlz0H3pI--132">
          <mxGeometry width="250" height="50" relative="1" as="geometry" />
        </mxCell>
        <mxCell id="ROPBf6oA_unDlz0H3pI--140" style="edgeStyle=orthogonalEdgeStyle;rounded=0;orthogonalLoop=1;jettySize=auto;html=1;entryX=-0.003;entryY=0.511;entryDx=0;entryDy=0;entryPerimeter=0;strokeColor=#FFFFFF;" edge="1" parent="1" source="ROPBf6oA_unDlz0H3pI--134" target="ROPBf6oA_unDlz0H3pI--132">
          <mxGeometry relative="1" as="geometry">
            <Array as="points">
              <mxPoint x="1680" y="719" />
            </Array>
          </mxGeometry>
        </mxCell>
        <mxCell id="ROPBf6oA_unDlz0H3pI--142" value="&lt;font style=&quot;font-size: 20px;&quot;&gt;&amp;nbsp; Credentials&lt;br&gt;&amp;nbsp;Filled&amp;nbsp;&amp;nbsp;&lt;/font&gt;" style="edgeLabel;html=1;align=center;verticalAlign=middle;resizable=0;points=[];" vertex="1" connectable="0" parent="ROPBf6oA_unDlz0H3pI--140">
          <mxGeometry x="-0.3289" relative="1" as="geometry">
            <mxPoint y="10" as="offset" />
          </mxGeometry>
        </mxCell>
        <mxCell id="ROPBf6oA_unDlz0H3pI--141" style="edgeStyle=orthogonalEdgeStyle;rounded=0;orthogonalLoop=1;jettySize=auto;html=1;entryX=0.003;entryY=0.581;entryDx=0;entryDy=0;entryPerimeter=0;strokeColor=#FFFFFF;" edge="1" parent="1" source="ROPBf6oA_unDlz0H3pI--134" target="ROPBf6oA_unDlz0H3pI--138">
          <mxGeometry relative="1" as="geometry">
            <Array as="points">
              <mxPoint x="1680" y="1089" />
            </Array>
          </mxGeometry>
        </mxCell>
        <mxCell id="ROPBf6oA_unDlz0H3pI--134" value="" style="rhombus;whiteSpace=wrap;html=1;" vertex="1" parent="1">
          <mxGeometry x="1656" y="874" width="47" height="47" as="geometry" />
        </mxCell>
        <mxCell id="ROPBf6oA_unDlz0H3pI--138" value="&lt;font style=&quot;font-size: 15px;&quot;&gt;Please fill the credentials required for selected type&amp;nbsp;{Select Type}&amp;nbsp;&lt;/font&gt;" style="html=1;shadow=0;dashed=0;shape=mxgraph.bootstrap.rrect;rSize=5;strokeColor=#BA2239;html=1;whiteSpace=wrap;fillColor=#DB2843;fontColor=#ffffff;verticalAlign=bottom;align=left;spacing=20;spacingBottom=0;fontSize=14;" vertex="1" parent="1">
          <mxGeometry x="1790.6" y="1008" width="250" height="139" as="geometry" />
        </mxCell>
        <mxCell id="ROPBf6oA_unDlz0H3pI--139" value="Error" style="html=1;shadow=0;dashed=0;shape=mxgraph.bootstrap.topButton;rSize=5;perimeter=none;whiteSpace=wrap;fillColor=#D42741;strokeColor=#BA2239;fontColor=#ffffff;resizeWidth=1;fontSize=18;align=left;spacing=20;" vertex="1" parent="ROPBf6oA_unDlz0H3pI--138">
          <mxGeometry width="250" height="50" relative="1" as="geometry" />
        </mxCell>
        <mxCell id="ROPBf6oA_unDlz0H3pI--143" value="&lt;font style=&quot;font-size: 20px;&quot;&gt;&amp;nbsp; Credentials&lt;br&gt;&amp;nbsp; Not Filled&amp;nbsp;&amp;nbsp;&lt;/font&gt;" style="edgeLabel;html=1;align=center;verticalAlign=middle;resizable=0;points=[];" vertex="1" connectable="0" parent="1">
          <mxGeometry x="1679.5" y="999" as="geometry">
            <mxPoint x="-4" y="-4" as="offset" />
          </mxGeometry>
        </mxCell>
        <mxCell id="ROPBf6oA_unDlz0H3pI--149" style="edgeStyle=orthogonalEdgeStyle;rounded=0;orthogonalLoop=1;jettySize=auto;html=1;strokeColor=#FFFFFF;" edge="1" parent="1" source="ROPBf6oA_unDlz0H3pI--144" target="ROPBf6oA_unDlz0H3pI--147">
          <mxGeometry relative="1" as="geometry" />
        </mxCell>
        <mxCell id="ROPBf6oA_unDlz0H3pI--150" value="&amp;nbsp; Yes&amp;nbsp;&amp;nbsp;" style="edgeLabel;html=1;align=center;verticalAlign=middle;resizable=0;points=[];" vertex="1" connectable="0" parent="ROPBf6oA_unDlz0H3pI--149">
          <mxGeometry x="-0.2604" y="3" relative="1" as="geometry">
            <mxPoint x="13" as="offset" />
          </mxGeometry>
        </mxCell>
        <mxCell id="ROPBf6oA_unDlz0H3pI--153" style="edgeStyle=orthogonalEdgeStyle;rounded=0;orthogonalLoop=1;jettySize=auto;html=1;strokeColor=#FFFFFF;" edge="1" parent="1" source="ROPBf6oA_unDlz0H3pI--144" target="ROPBf6oA_unDlz0H3pI--151">
          <mxGeometry relative="1" as="geometry">
            <Array as="points">
              <mxPoint x="461" y="410" />
            </Array>
          </mxGeometry>
        </mxCell>
        <mxCell id="ROPBf6oA_unDlz0H3pI--144" value="" style="rhombus;whiteSpace=wrap;html=1;" vertex="1" parent="1">
          <mxGeometry x="438.47" y="600" width="47" height="47" as="geometry" />
        </mxCell>
        <mxCell id="ROPBf6oA_unDlz0H3pI--147" value="&lt;span style=&quot;font-size: 15px;&quot;&gt;Data sucessfully updated from {selected table}&lt;/span&gt;" style="html=1;shadow=0;dashed=0;shape=mxgraph.bootstrap.rrect;rSize=5;strokeColor=#4D9900;html=1;whiteSpace=wrap;fillColor=#4D9900;fontColor=#ffffff;verticalAlign=bottom;align=left;spacing=20;spacingBottom=0;fontSize=14;" vertex="1" parent="1">
          <mxGeometry x="627" y="563" width="250" height="120" as="geometry" />
        </mxCell>
        <mxCell id="ROPBf6oA_unDlz0H3pI--148" value="Alter Record" style="html=1;shadow=0;dashed=0;shape=mxgraph.bootstrap.topButton;rSize=5;perimeter=none;whiteSpace=wrap;fillColor=#4D9900;strokeColor=#5B646A;fontColor=#ffffff;resizeWidth=1;fontSize=18;align=left;spacing=20;" vertex="1" parent="ROPBf6oA_unDlz0H3pI--147">
          <mxGeometry width="250" height="50" relative="1" as="geometry" />
        </mxCell>
        <mxCell id="ROPBf6oA_unDlz0H3pI--151" value="&lt;font style=&quot;font-size: 15px;&quot;&gt;Please fill the credentials required for selected type&amp;nbsp;{Select Type}&amp;nbsp;&lt;/font&gt;" style="html=1;shadow=0;dashed=0;shape=mxgraph.bootstrap.rrect;rSize=5;strokeColor=#BA2239;html=1;whiteSpace=wrap;fillColor=#DB2843;fontColor=#ffffff;verticalAlign=bottom;align=left;spacing=20;spacingBottom=0;fontSize=14;" vertex="1" parent="1">
          <mxGeometry x="630.4699999999998" y="340" width="250" height="139" as="geometry" />
        </mxCell>
        <mxCell id="ROPBf6oA_unDlz0H3pI--152" value="Error" style="html=1;shadow=0;dashed=0;shape=mxgraph.bootstrap.topButton;rSize=5;perimeter=none;whiteSpace=wrap;fillColor=#D42741;strokeColor=#BA2239;fontColor=#ffffff;resizeWidth=1;fontSize=18;align=left;spacing=20;" vertex="1" parent="ROPBf6oA_unDlz0H3pI--151">
          <mxGeometry width="250" height="50" relative="1" as="geometry" />
        </mxCell>
        <mxCell id="ROPBf6oA_unDlz0H3pI--155" value="Is Data&lt;br&gt;Values exist&amp;nbsp;&lt;br&gt;&amp;nbsp; or Data is True&amp;nbsp;&amp;nbsp;" style="edgeLabel;html=1;align=center;verticalAlign=middle;resizable=0;points=[];" vertex="1" connectable="0" parent="1">
          <mxGeometry x="461.973333333333" y="731.0033333333333" as="geometry" />
        </mxCell>
        <mxCell id="ROPBf6oA_unDlz0H3pI--156" value="&amp;nbsp; No&amp;nbsp;&amp;nbsp;" style="edgeLabel;html=1;align=center;verticalAlign=middle;resizable=0;points=[];" vertex="1" connectable="0" parent="1">
          <mxGeometry x="553.003333333333" y="409.50333333333333" as="geometry">
            <mxPoint x="-2" y="-2" as="offset" />
          </mxGeometry>
        </mxCell>
        <mxCell id="ROPBf6oA_unDlz0H3pI--157" value="" style="strokeWidth=2;html=1;shape=mxgraph.flowchart.start_2;whiteSpace=wrap;" vertex="1" parent="1">
          <mxGeometry x="411.97" y="-321.5" width="100" height="100" as="geometry" />
        </mxCell>
        <mxCell id="ROPBf6oA_unDlz0H3pI--162" style="edgeStyle=orthogonalEdgeStyle;rounded=0;orthogonalLoop=1;jettySize=auto;html=1;entryX=0.5;entryY=0;entryDx=0;entryDy=0;strokeColor=#FFFFFF;" edge="1" parent="1" source="ROPBf6oA_unDlz0H3pI--158" target="ROPBf6oA_unDlz0H3pI--161">
          <mxGeometry relative="1" as="geometry" />
        </mxCell>
        <mxCell id="ROPBf6oA_unDlz0H3pI--164" value="&lt;font style=&quot;font-size: 20px;&quot;&gt;&amp;nbsp; Login Data&amp;nbsp;&amp;nbsp;&lt;/font&gt;" style="edgeLabel;html=1;align=center;verticalAlign=middle;resizable=0;points=[];" vertex="1" connectable="0" parent="ROPBf6oA_unDlz0H3pI--162">
          <mxGeometry x="-0.4257" y="1" relative="1" as="geometry">
            <mxPoint y="33" as="offset" />
          </mxGeometry>
        </mxCell>
        <mxCell id="ROPBf6oA_unDlz0H3pI--158" value="Login" style="html=1;whiteSpace=wrap;strokeColor=none;fillColor=#0079D6;labelPosition=center;verticalLabelPosition=middle;verticalAlign=top;align=center;fontSize=12;outlineConnect=0;spacingTop=-6;fontColor=#FFFFFF;sketch=0;shape=mxgraph.sitemap.login;" vertex="1" parent="1">
          <mxGeometry x="1197.37" y="-110" width="120" height="70" as="geometry" />
        </mxCell>
        <mxCell id="ROPBf6oA_unDlz0H3pI--163" style="edgeStyle=orthogonalEdgeStyle;rounded=0;orthogonalLoop=1;jettySize=auto;html=1;entryX=0.5;entryY=0;entryDx=0;entryDy=0;strokeColor=#FFFFFF;" edge="1" parent="1" source="ROPBf6oA_unDlz0H3pI--161" target="ROPBf6oA_unDlz0H3pI--104">
          <mxGeometry relative="1" as="geometry" />
        </mxCell>
        <mxCell id="ROPBf6oA_unDlz0H3pI--165" value="&lt;font style=&quot;font-size: 20px;&quot;&gt;&amp;nbsp; TRUE&amp;nbsp;&amp;nbsp;&lt;/font&gt;" style="edgeLabel;html=1;align=center;verticalAlign=middle;resizable=0;points=[];" vertex="1" connectable="0" parent="ROPBf6oA_unDlz0H3pI--163">
          <mxGeometry x="-0.3222" y="1" relative="1" as="geometry">
            <mxPoint y="48" as="offset" />
          </mxGeometry>
        </mxCell>
        <mxCell id="ROPBf6oA_unDlz0H3pI--175" style="edgeStyle=orthogonalEdgeStyle;rounded=0;orthogonalLoop=1;jettySize=auto;html=1;entryX=0;entryY=0.5;entryDx=0;entryDy=0;strokeColor=#FFFFFF;" edge="1" parent="1" source="ROPBf6oA_unDlz0H3pI--161" target="ROPBf6oA_unDlz0H3pI--171">
          <mxGeometry relative="1" as="geometry" />
        </mxCell>
        <mxCell id="ROPBf6oA_unDlz0H3pI--176" value="&lt;font style=&quot;font-size: 20px;&quot;&gt;&amp;nbsp; FALSE&amp;nbsp;&amp;nbsp;&lt;/font&gt;" style="edgeLabel;html=1;align=center;verticalAlign=middle;resizable=0;points=[];" vertex="1" connectable="0" parent="ROPBf6oA_unDlz0H3pI--175">
          <mxGeometry x="-0.1792" relative="1" as="geometry">
            <mxPoint as="offset" />
          </mxGeometry>
        </mxCell>
        <mxCell id="ROPBf6oA_unDlz0H3pI--161" value="" style="rhombus;whiteSpace=wrap;html=1;" vertex="1" parent="1">
          <mxGeometry x="1233.87" y="294" width="47" height="47" as="geometry" />
        </mxCell>
        <mxCell id="ROPBf6oA_unDlz0H3pI--168" style="edgeStyle=orthogonalEdgeStyle;rounded=0;orthogonalLoop=1;jettySize=auto;html=1;strokeColor=#FFFFFF;" edge="1" parent="1" source="ROPBf6oA_unDlz0H3pI--171" target="ROPBf6oA_unDlz0H3pI--177">
          <mxGeometry relative="1" as="geometry">
            <Array as="points">
              <mxPoint x="1590.18" y="140" />
            </Array>
            <mxPoint x="1700.2300000000002" y="140.05100000000004" as="targetPoint" />
          </mxGeometry>
        </mxCell>
        <mxCell id="ROPBf6oA_unDlz0H3pI--169" value="&lt;font style=&quot;font-size: 20px;&quot;&gt;&amp;nbsp; Credentials&lt;br&gt;&amp;nbsp;Filled&amp;nbsp;&amp;nbsp;&lt;/font&gt;" style="edgeLabel;html=1;align=center;verticalAlign=middle;resizable=0;points=[];" vertex="1" connectable="0" parent="ROPBf6oA_unDlz0H3pI--168">
          <mxGeometry x="-0.3289" relative="1" as="geometry">
            <mxPoint y="10" as="offset" />
          </mxGeometry>
        </mxCell>
        <mxCell id="ROPBf6oA_unDlz0H3pI--170" style="edgeStyle=orthogonalEdgeStyle;rounded=0;orthogonalLoop=1;jettySize=auto;html=1;entryX=0.003;entryY=0.581;entryDx=0;entryDy=0;entryPerimeter=0;strokeColor=#FFFFFF;" edge="1" parent="1" source="ROPBf6oA_unDlz0H3pI--171" target="ROPBf6oA_unDlz0H3pI--172">
          <mxGeometry relative="1" as="geometry">
            <Array as="points">
              <mxPoint x="1590.38" y="510" />
            </Array>
          </mxGeometry>
        </mxCell>
        <mxCell id="ROPBf6oA_unDlz0H3pI--171" value="" style="rhombus;whiteSpace=wrap;html=1;" vertex="1" parent="1">
          <mxGeometry x="1566.38" y="295" width="47" height="47" as="geometry" />
        </mxCell>
        <mxCell id="ROPBf6oA_unDlz0H3pI--172" value="&lt;font style=&quot;font-size: 15px;&quot;&gt;Please fill the credentials&lt;/font&gt;" style="html=1;shadow=0;dashed=0;shape=mxgraph.bootstrap.rrect;rSize=5;strokeColor=#BA2239;html=1;whiteSpace=wrap;fillColor=#DB2843;fontColor=#ffffff;verticalAlign=bottom;align=left;spacing=20;spacingBottom=0;fontSize=14;" vertex="1" parent="1">
          <mxGeometry x="1700.98" y="429" width="250" height="105" as="geometry" />
        </mxCell>
        <mxCell id="ROPBf6oA_unDlz0H3pI--173" value="Error" style="html=1;shadow=0;dashed=0;shape=mxgraph.bootstrap.topButton;rSize=5;perimeter=none;whiteSpace=wrap;fillColor=#D42741;strokeColor=#BA2239;fontColor=#ffffff;resizeWidth=1;fontSize=18;align=left;spacing=20;" vertex="1" parent="ROPBf6oA_unDlz0H3pI--172">
          <mxGeometry width="250" height="50" relative="1" as="geometry" />
        </mxCell>
        <mxCell id="ROPBf6oA_unDlz0H3pI--174" value="&lt;font style=&quot;font-size: 20px;&quot;&gt;&amp;nbsp; Credentials&lt;br&gt;&amp;nbsp; Not Filled&amp;nbsp;&amp;nbsp;&lt;/font&gt;" style="edgeLabel;html=1;align=center;verticalAlign=middle;resizable=0;points=[];" vertex="1" connectable="0" parent="1">
          <mxGeometry x="1589.88" y="420" as="geometry">
            <mxPoint x="-4" y="-4" as="offset" />
          </mxGeometry>
        </mxCell>
        <mxCell id="ROPBf6oA_unDlz0H3pI--177" value="&lt;span style=&quot;font-size: 15px;&quot;&gt;Username or Password didn&#39;t match&lt;/span&gt;" style="html=1;shadow=0;dashed=0;shape=mxgraph.bootstrap.rrect;rSize=5;strokeColor=#BA2239;html=1;whiteSpace=wrap;fillColor=#DB2843;fontColor=#ffffff;verticalAlign=bottom;align=left;spacing=20;spacingBottom=0;fontSize=14;" vertex="1" parent="1">
          <mxGeometry x="1725.18" y="88" width="250" height="105" as="geometry" />
        </mxCell>
        <mxCell id="ROPBf6oA_unDlz0H3pI--178" value="Error" style="html=1;shadow=0;dashed=0;shape=mxgraph.bootstrap.topButton;rSize=5;perimeter=none;whiteSpace=wrap;fillColor=#D42741;strokeColor=#BA2239;fontColor=#ffffff;resizeWidth=1;fontSize=18;align=left;spacing=20;" vertex="1" parent="ROPBf6oA_unDlz0H3pI--177">
          <mxGeometry width="250" height="50" relative="1" as="geometry" />
        </mxCell>
        <mxCell id="ROPBf6oA_unDlz0H3pI--214" style="edgeStyle=orthogonalEdgeStyle;rounded=0;orthogonalLoop=1;jettySize=auto;html=1;entryX=0.5;entryY=0;entryDx=0;entryDy=0;entryPerimeter=0;strokeColor=#FFFFFF;" edge="1" parent="1" source="ROPBf6oA_unDlz0H3pI--192" target="ROPBf6oA_unDlz0H3pI--157">
          <mxGeometry relative="1" as="geometry">
            <Array as="points">
              <mxPoint x="2400" y="-474" />
              <mxPoint x="462" y="-474" />
            </Array>
          </mxGeometry>
        </mxCell>
        <mxCell id="ROPBf6oA_unDlz0H3pI--192" value="" style="rounded=0;whiteSpace=wrap;html=1;" vertex="1" parent="1">
          <mxGeometry x="2199.75" y="1183" width="400" height="80" as="geometry" />
        </mxCell>
        <mxCell id="ROPBf6oA_unDlz0H3pI--222" style="edgeStyle=orthogonalEdgeStyle;rounded=0;orthogonalLoop=1;jettySize=auto;html=1;entryX=0;entryY=0.5;entryDx=0;entryDy=0;strokeColor=#FFFFFF;" edge="1" parent="1" source="ROPBf6oA_unDlz0H3pI--193" target="ROPBf6oA_unDlz0H3pI--221">
          <mxGeometry relative="1" as="geometry" />
        </mxCell>
        <mxCell id="ROPBf6oA_unDlz0H3pI--193" value="" style="rounded=0;whiteSpace=wrap;html=1;" vertex="1" parent="1">
          <mxGeometry x="2199.75" y="1290.75" width="400" height="80" as="geometry" />
        </mxCell>
        <mxCell id="ROPBf6oA_unDlz0H3pI--219" style="edgeStyle=orthogonalEdgeStyle;rounded=0;orthogonalLoop=1;jettySize=auto;html=1;entryX=0;entryY=0.5;entryDx=0;entryDy=0;strokeColor=#FFFFFF;" edge="1" parent="1" source="ROPBf6oA_unDlz0H3pI--194" target="ROPBf6oA_unDlz0H3pI--218">
          <mxGeometry relative="1" as="geometry" />
        </mxCell>
        <mxCell id="ROPBf6oA_unDlz0H3pI--194" value="" style="rounded=0;whiteSpace=wrap;html=1;" vertex="1" parent="1">
          <mxGeometry x="2198" y="1490.75" width="400" height="80" as="geometry" />
        </mxCell>
        <mxCell id="ROPBf6oA_unDlz0H3pI--220" style="edgeStyle=orthogonalEdgeStyle;rounded=0;orthogonalLoop=1;jettySize=auto;html=1;entryX=0;entryY=0.5;entryDx=0;entryDy=0;strokeColor=#FFFFFF;" edge="1" parent="1" source="ROPBf6oA_unDlz0H3pI--195" target="ROPBf6oA_unDlz0H3pI--217">
          <mxGeometry relative="1" as="geometry" />
        </mxCell>
        <mxCell id="ROPBf6oA_unDlz0H3pI--195" value="" style="rounded=0;whiteSpace=wrap;html=1;" vertex="1" parent="1">
          <mxGeometry x="2198" y="1590.75" width="400" height="80" as="geometry" />
        </mxCell>
        <mxCell id="ROPBf6oA_unDlz0H3pI--196" value="&lt;font style=&quot;font-size: 25px;&quot;&gt;Performence&lt;/font&gt;" style="text;html=1;align=center;verticalAlign=middle;resizable=0;points=[];autosize=1;strokeColor=none;fillColor=none;" vertex="1" parent="1">
          <mxGeometry x="2313" y="1610.75" width="170" height="40" as="geometry" />
        </mxCell>
        <mxCell id="ROPBf6oA_unDlz0H3pI--197" value="&lt;font style=&quot;font-size: 25px;&quot;&gt;Instructions&lt;/font&gt;" style="text;html=1;align=center;verticalAlign=middle;resizable=0;points=[];autosize=1;strokeColor=none;fillColor=none;" vertex="1" parent="1">
          <mxGeometry x="2323" y="1510.75" width="150" height="40" as="geometry" />
        </mxCell>
        <mxCell id="ROPBf6oA_unDlz0H3pI--198" value="&lt;font style=&quot;font-size: 25px;&quot;&gt;Database&lt;/font&gt;" style="text;html=1;align=center;verticalAlign=middle;resizable=0;points=[];autosize=1;strokeColor=none;fillColor=none;" vertex="1" parent="1">
          <mxGeometry x="2329.75" y="1310.75" width="130" height="40" as="geometry" />
        </mxCell>
        <mxCell id="ROPBf6oA_unDlz0H3pI--199" value="&lt;font style=&quot;font-size: 25px;&quot;&gt;Logout&lt;/font&gt;" style="text;html=1;align=center;verticalAlign=middle;resizable=0;points=[];autosize=1;strokeColor=none;fillColor=none;" vertex="1" parent="1">
          <mxGeometry x="2348" y="1203" width="100" height="40" as="geometry" />
        </mxCell>
        <mxCell id="ROPBf6oA_unDlz0H3pI--201" style="edgeStyle=orthogonalEdgeStyle;rounded=0;orthogonalLoop=1;jettySize=auto;html=1;entryX=0;entryY=0.5;entryDx=0;entryDy=0;strokeColor=#ffffff;" edge="1" parent="1" source="ROPBf6oA_unDlz0H3pI--206" target="ROPBf6oA_unDlz0H3pI--192">
          <mxGeometry relative="1" as="geometry" />
        </mxCell>
        <mxCell id="ROPBf6oA_unDlz0H3pI--202" style="edgeStyle=orthogonalEdgeStyle;rounded=0;orthogonalLoop=1;jettySize=auto;html=1;entryX=0;entryY=0.5;entryDx=0;entryDy=0;strokeColor=#ffffff;" edge="1" parent="1" source="ROPBf6oA_unDlz0H3pI--206" target="ROPBf6oA_unDlz0H3pI--193">
          <mxGeometry relative="1" as="geometry" />
        </mxCell>
        <mxCell id="ROPBf6oA_unDlz0H3pI--204" style="edgeStyle=orthogonalEdgeStyle;rounded=0;orthogonalLoop=1;jettySize=auto;html=1;entryX=0;entryY=0.5;entryDx=0;entryDy=0;strokeColor=#ffffff;" edge="1" parent="1" source="ROPBf6oA_unDlz0H3pI--206" target="ROPBf6oA_unDlz0H3pI--194">
          <mxGeometry relative="1" as="geometry" />
        </mxCell>
        <mxCell id="ROPBf6oA_unDlz0H3pI--205" style="edgeStyle=orthogonalEdgeStyle;rounded=0;orthogonalLoop=1;jettySize=auto;html=1;entryX=0;entryY=0.5;entryDx=0;entryDy=0;strokeColor=#ffffff;" edge="1" parent="1" source="ROPBf6oA_unDlz0H3pI--206" target="ROPBf6oA_unDlz0H3pI--195">
          <mxGeometry relative="1" as="geometry" />
        </mxCell>
        <mxCell id="ROPBf6oA_unDlz0H3pI--213" style="edgeStyle=orthogonalEdgeStyle;rounded=0;orthogonalLoop=1;jettySize=auto;html=1;entryX=0;entryY=0.5;entryDx=0;entryDy=0;strokeColor=#FFFFFF;" edge="1" parent="1" source="ROPBf6oA_unDlz0H3pI--206" target="ROPBf6oA_unDlz0H3pI--211">
          <mxGeometry relative="1" as="geometry" />
        </mxCell>
        <mxCell id="ROPBf6oA_unDlz0H3pI--206" value="" style="shape=image;html=1;verticalAlign=top;verticalLabelPosition=bottom;labelBackgroundColor=#FFFFFF;imageAspect=0;aspect=fixed;image=https://cdn1.iconfinder.com/data/icons/hawcons/32/699552-icon-27-one-finger-click-128.png;fontColor=#FFFFFF;imageBackground=none;imageBorder=none;" vertex="1" parent="1">
          <mxGeometry x="1398.9999999999998" y="1398" width="65.5" height="65.5" as="geometry" />
        </mxCell>
        <mxCell id="ROPBf6oA_unDlz0H3pI--207" value="" style="endArrow=classic;html=1;rounded=0;entryX=0;entryY=0.5;entryDx=0;entryDy=0;strokeColor=#FFFFFF;" edge="1" parent="1" target="ROPBf6oA_unDlz0H3pI--206">
          <mxGeometry width="50" height="50" relative="1" as="geometry">
            <mxPoint x="1259" y="1431" as="sourcePoint" />
            <mxPoint x="1413" y="1392" as="targetPoint" />
          </mxGeometry>
        </mxCell>
        <mxCell id="ROPBf6oA_unDlz0H3pI--216" style="edgeStyle=orthogonalEdgeStyle;rounded=0;orthogonalLoop=1;jettySize=auto;html=1;entryX=0;entryY=0.5;entryDx=0;entryDy=0;strokeColor=#FFFFFF;" edge="1" parent="1" source="ROPBf6oA_unDlz0H3pI--211" target="ROPBf6oA_unDlz0H3pI--215">
          <mxGeometry relative="1" as="geometry" />
        </mxCell>
        <mxCell id="ROPBf6oA_unDlz0H3pI--211" value="" style="rounded=0;whiteSpace=wrap;html=1;" vertex="1" parent="1">
          <mxGeometry x="2198" y="1390.75" width="400" height="80" as="geometry" />
        </mxCell>
        <mxCell id="ROPBf6oA_unDlz0H3pI--212" value="&lt;font style=&quot;font-size: 25px;&quot;&gt;About&lt;/font&gt;" style="text;html=1;align=center;verticalAlign=middle;resizable=0;points=[];autosize=1;strokeColor=none;fillColor=none;" vertex="1" parent="1">
          <mxGeometry x="2358.75" y="1409.75" width="83" height="42" as="geometry" />
        </mxCell>
        <mxCell id="ROPBf6oA_unDlz0H3pI--215" value="&lt;font style=&quot;font-size: 20px;&quot;&gt;About Us Window&lt;/font&gt;" style="rounded=0;whiteSpace=wrap;html=1;" vertex="1" parent="1">
          <mxGeometry x="2695" y="1390.75" width="400" height="80" as="geometry" />
        </mxCell>
        <mxCell id="ROPBf6oA_unDlz0H3pI--217" value="&lt;font style=&quot;font-size: 20px;&quot;&gt;Performence Window&lt;/font&gt;" style="rounded=0;whiteSpace=wrap;html=1;" vertex="1" parent="1">
          <mxGeometry x="2695" y="1590.75" width="400" height="80" as="geometry" />
        </mxCell>
        <mxCell id="ROPBf6oA_unDlz0H3pI--218" value="&lt;font style=&quot;font-size: 20px;&quot;&gt;Instructions Window&lt;/font&gt;" style="rounded=0;whiteSpace=wrap;html=1;" vertex="1" parent="1">
          <mxGeometry x="2695" y="1490.75" width="400" height="80" as="geometry" />
        </mxCell>
        <mxCell id="ROPBf6oA_unDlz0H3pI--221" value="&lt;font style=&quot;font-size: 20px;&quot;&gt;Change Connection Window&lt;/font&gt;" style="rounded=0;whiteSpace=wrap;html=1;" vertex="1" parent="1">
          <mxGeometry x="2695" y="1290.75" width="400" height="80" as="geometry" />
        </mxCell>
      </root>
    </mxGraphModel>
  </diagram>
</mxfile>
